Coordinates
version=1
nRows=19
nColumns=36
inDegrees=yes

Units are S.I. units (second, meters, Newtons, ...)
If the header above contains a line with 'inDegrees', this indicates whether rotational values are in degrees (yes) or radians (no).

endheader
time	pelvis_tilt	pelvis_list	pelvis_rotation	pelvis_tx	pelvis_ty	pelvis_tz	hip_flexion_r	hip_adduction_r	hip_rotation_r	knee_angle_r	knee_angle_r_beta	ankle_angle_r	subtalar_angle_r	mtp_angle_r	hip_flexion_l	hip_adduction_l	hip_rotation_l	knee_angle_l	knee_angle_l_beta	ankle_angle_l	subtalar_angle_l	mtp_angle_l	lumbar_extension	lumbar_bending	lumbar_rotation	arm_flex_r	arm_add_r	arm_rot_r	elbow_flex_r	pro_sup_r	arm_flex_l	arm_add_l	arm_rot_l	elbow_flex_l	pro_sup_l
      2.47083330	    -10.45894658	      2.69182944	     -0.10140864	     -0.07497514	      1.20814307	     -0.04120785	     28.32628086	     -3.70382131	    -17.29395334	      1.37275938	      0.02395917	    -28.44937808	     -0.96688524	     -7.49999987	     26.99049851	     -2.02484856	     -4.92634299	      8.35871180	      0.14588704	    -31.41103234	      8.35579090	     -7.49999987	     -6.24372690	     -2.44561366	     -2.79235068	     98.59950459	    -17.93503115	     44.83011310	     74.38522078	     74.93424109	    103.24997372	    -28.54681510	     59.71506218	     56.47851947	     60.10401885
      2.47500000	    -10.14838439	      2.52980795	      0.20696207	     -0.07058751	      1.20112534	     -0.04016455	     28.07836298	     -3.66506655	    -17.33390546	      1.28297714	      0.02239218	    -28.40227171	     -0.37785583	     -7.49999987	     27.04890185	     -2.06624595	     -4.75587845	      8.12740447	      0.14184997	    -31.10004553	      8.44990996	     -7.49999987	     -6.48533477	     -2.34954008	     -3.18966128	     97.96805842	    -18.86217861	     45.65122847	     75.69497678	     74.81557551	    102.86136326	    -29.40089673	     60.75432462	     56.85140889	     60.25362044
      2.47916670	     -9.85712572	      2.51981870	      0.41427535	     -0.06464717	      1.19595098	     -0.03927262	     27.91444748	     -3.67363718	    -17.45651513	      1.17591967	      0.02052367	    -28.39761443	      0.86781440	     -7.49999987	     27.01164453	     -2.08259215	     -5.35868029	      7.74646551	      0.13520133	    -31.82924676	      8.06138140	     -7.49999987	     -6.73364162	     -2.64972682	     -3.33965467	     97.61342481	    -19.99112875	     46.55302185	     76.47841196	     74.67738962	    103.00743499	    -29.96502391	     62.58876209	     57.13556507	     60.49901324
      2.48333330	     -9.83547257	      2.64920665	      0.48580647	     -0.05781585	      1.18696209	     -0.03890942	     28.05298378	     -3.82210035	    -17.87684581	      1.02292893	      0.01785348	    -28.40615440	      1.16003038	     -7.49999987	     27.28217968	     -2.01555783	     -6.23009137	      7.63268101	      0.13321541	    -32.60663006	      7.49293638	     -7.49999987	     -6.44915332	     -3.11704473	     -3.52708344	     96.14199225	    -21.32592799	     46.35635474	     78.06381891	     77.52804307	    103.06896471	    -30.54539610	     64.86286298	     57.19903995	     60.90126053
      2.48750000	     -9.82662044	      2.60765378	      0.44000880	     -0.05114480	      1.17723594	     -0.03895677	     28.22613931	     -3.82032691	    -17.96465727	      0.95614119	      0.01668781	    -28.50591550	      1.56227033	     -7.49999987	     27.60690556	     -2.15785581	     -6.75728337	      7.54861616	      0.13174821	    -32.68314792	      6.97812537	     -7.49999987	     -6.16574337	     -3.00091246	     -3.50528596	     96.03284624	    -21.81247121	     47.44330044	     78.39914866	     76.50640351	    102.34394670	    -31.57525613	     65.23486191	     58.22204781	     60.90292277
      2.49166670	     -9.95754691	      2.73310037	      0.05176294	     -0.04464106	      1.17013959	     -0.03743914	     28.48504876	     -3.82895224	    -17.69939178	      0.92445547	      0.01613479	    -28.59999557	      1.37812305	     -7.49999987	     27.76315771	     -2.27818533	     -6.95172575	      7.15839687	      0.12493759	    -32.15390727	      7.05569904	     -7.49999987	     -5.40930594	     -3.18209361	     -3.26772243	     95.19440430	    -22.30315637	     47.98293400	     78.93731633	     75.42046271	    101.23400859	    -32.78992986	     65.67462896	     59.23534943	     60.90213099
      2.49583330	     -9.53528198	      2.73687050	     -0.49359737	     -0.03714092	      1.16341231	     -0.03712495	     28.17399681	     -3.64465999	    -18.27833064	      0.94931255	      0.01656863	    -28.87869215	      2.37333484	     -7.49999987	     27.31290820	     -2.63247877	     -7.28044030	      6.67581767	      0.11651500	    -32.04080587	      7.99759646	     -7.49999987	     -5.64248819	     -3.17290583	     -2.98823250	     94.99654032	    -23.45400483	     49.20425921	     81.40146834	     75.68494009	    100.75806508	    -34.94921261	     66.57817561	     62.48908676	     61.34562161
      2.50000000	     -9.18648948	      2.74828261	     -0.56433595	     -0.03138442	      1.15419954	     -0.03547313	     27.98317041	     -3.64139281	    -18.27641531	      0.90922936	      0.01586905	    -29.10119441	      2.12352464	     -7.49999987	     27.07439470	     -2.71621410	     -7.39104447	      6.28836049	      0.10975260	    -31.99359928	      8.07430610	     -7.49999987	     -5.53665295	     -3.06056221	     -3.36438019	     95.00650448	    -23.28625752	     50.11962658	     81.39626863	     80.01188671	    100.40452692	    -36.99022469	     67.92202975	     64.10236427	     62.97475453
      2.50416670	     -8.88170851	      2.86775842	     -0.66769709	     -0.02617388	      1.14456096	     -0.03502875	     27.93184009	     -3.66451690	    -18.27648214	      0.91671205	      0.01599964	    -29.60771768	      2.10101735	     -7.49999987	     26.98832376	     -2.68503489	     -7.50794613	      6.11675574	      0.10675753	    -32.02834037	      8.09475926	     -7.49999987	     -5.61898054	     -3.26859217	     -3.48090505	     95.20389681	    -24.07660859	     51.52082698	     82.37183850	     78.48139224	    100.29239075	    -38.18834722	     68.75397566	     65.20889328	     62.90137206
      2.50833330	     -8.68285419	      2.82890187	     -0.64811787	     -0.01929883	      1.13498628	     -0.03580364	     27.91723872	     -3.54906200	    -18.17140644	      1.00521500	      0.01754431	    -29.59629821	      2.50370850	     -7.49999987	     27.07066641	     -2.75663122	     -7.46332257	      5.97132240	      0.10421924	    -32.10204523	      7.95804147	     -7.49999987	     -5.56057148	     -3.21047922	     -3.45993181	     95.28233246	    -25.52251976	     53.01358564	     84.06923301	     78.22373731	    100.16623399	    -39.59150669	     69.73308935	     66.64849433	     63.10992081
      2.51250000	     -8.75113626	      2.85095710	     -0.62119530	     -0.01408794	      1.12291910	     -0.03567056	     28.35363201	     -3.59741624	    -17.79780638	      1.27168687	      0.02219512	    -29.15309204	      2.51076729	     -7.49999987	     27.69860774	     -2.83805092	     -7.54852753	      6.54131548	      0.11416749	    -32.11455758	      7.59592114	     -7.49999987	     -4.83407397	     -3.35221200	     -3.70990335	     94.77140735	    -26.38617573	     53.60551452	     84.37574957	     76.72399959	     99.57626067	    -40.59771781	     70.16874245	     67.02781607	     62.91120751
      2.51666670	     -8.02619867	      2.91375488	     -0.38248131	     -0.00870992	      1.11460671	     -0.03526158	     27.80699935	     -3.83672647	    -17.55055337	      1.51193661	      0.02638827	    -28.66117196	      2.91312997	     -7.49999987	     27.49059875	     -2.68540814	     -7.88188938	      7.08684921	      0.12368885	    -31.98745367	      6.74479181	     -7.49999987	     -5.71709823	     -3.64362762	     -3.72037047	     95.68448861	    -28.80628899	     55.41455774	     87.37324954	     76.27673725	    100.63621407	    -41.43594179	     72.01250858	     68.40644055	     63.24721350
      2.52083330	     -7.84069365	      2.82150988	      0.12897995	     -0.00121602	      1.10530478	     -0.03464835	     27.62928075	     -3.93233644	    -17.10040043	      1.75991352	      0.03071629	    -28.41330081	      3.64529487	     -7.49999987	     27.75229781	     -2.73042863	     -8.02907154	      7.61723887	      0.13294590	    -31.84092412	      5.79512130	     -7.49999987	     -5.43348334	     -4.08156446	     -3.56252380	     94.75713522	    -31.77014728	     55.73128212	     90.18326231	     76.92061295	    101.50732083	    -41.07640209	     75.06659046	     68.58368453	     63.92479725
      2.52500000	     -7.44551622	      2.70551664	      0.28808377	      0.00502415	      1.09811277	     -0.03571067	     27.29759462	     -4.02361225	    -16.41809309	      1.93339941	      0.03374419	    -28.86257544	      3.69963564	     -7.49999987	     27.72773423	     -2.82875800	     -8.11183095	      8.25512665	      0.14407914	    -31.75845456	      4.77183194	     -7.49999987	     -5.43515452	     -4.24110422	     -3.80671410	     93.84501468	    -33.38650437	     56.36877739	     92.32343688	     76.21726258	    101.62999472	    -41.82540808	     76.35708199	     69.19458225	     63.91368080
      2.52916670	     -6.88837443	      2.52631318	      0.21063976	      0.01231062	      1.09022350	     -0.03523450	     26.70113336	     -3.86129859	    -16.01482703	      2.11349465	      0.03688744	    -29.18953124	      3.70771161	     -7.49999987	     27.34645489	     -3.14940937	     -8.01787889	      8.71330081	      0.15207579	    -31.47428810	      4.30358832	     -7.49999987	     -5.44455400	     -4.27194007	     -3.64295494	     92.78577825	    -35.16429546	     57.26084052	     94.59306671	     75.90585836	    101.46490456	    -42.31986941	     77.99973531	     70.09977313	     63.98501067
      2.53333330	     -6.49309429	      2.40557780	      0.29434456	      0.01858516	      1.07991836	     -0.03536049	     26.30430000	     -3.76568133	    -16.00767878	      2.22113259	      0.03876608	    -29.35877401	      3.64355777	     -7.49999987	     27.34475872	     -3.31130676	     -8.14011428	      9.40499990	      0.16414821	    -31.07028067	      4.14620448	     -7.49999987	     -5.38559131	     -4.20405632	     -3.69252843	     92.28931961	    -36.56498162	     58.40651539	     96.47324360	     75.75406809	    101.46434176	    -43.06966558	     79.50002014	     70.82148811	     64.04705294
      2.53750000	     -6.00412281	      2.16736259	      0.47637369	      0.02356656	      1.06756017	     -0.03613530	     26.07609926	     -3.67558312	    -15.84905112	      2.83832256	      0.04953807	    -29.85339566	      3.06157595	     -7.49999987	     27.52110401	     -3.48019615	     -7.61888982	     10.30971462	      0.17993846	    -30.97175040	      3.90585086	     -7.49999987	     -5.60453137	     -4.21625625	     -3.43876859	     91.70760444	    -38.96164421	     58.97102238	     98.21896849	     76.66655935	    102.43108632	    -43.08401579	     82.29741470	     71.02381869	     64.29454146
      2.54166670	     -5.64101055	      1.90239371	      0.54814856	      0.03187271	      1.05563244	     -0.03622891	     25.82083120	     -3.50470768	    -15.31327530	      3.35531169	      0.05856124	    -30.42784024	      2.48431146	     -7.49999987	     27.79415706	     -3.73757234	     -6.99349363	     11.31056222	      0.19740655	    -30.41729784	      3.34841442	     -7.49999987	     -5.70275976	     -3.71789968	     -3.47281459	     91.77960724	    -40.51460681	     59.63248379	     99.81943754	     76.27105901	    102.21875544	    -44.29454590	     82.77893458	     72.53303702	     64.23055490
      2.54583330	     -5.34389357	      1.71406973	      0.31515752	      0.03780166	      1.04261197	     -0.03599695	     26.10787790	     -3.34263870	    -14.63114098	      4.53112029	      0.07908297	    -30.18560609	      1.93541581	     -7.49999987	     28.27938150	     -4.06571127	     -6.56020789	     12.89060161	      0.22498344	    -29.58738492	      3.09030076	     -7.49999987	     -5.86732845	     -3.34910140	     -3.08317728	     92.96195609	    -42.46055483	     61.41742424	    101.53717371	     75.95940143	    102.99510569	    -45.73688314	     84.12710604	     75.08530305	     64.39925930
